<svg width="341" height="9" viewBox="0 0 341 9" fill="none" xmlns="http://www.w3.org/2000/svg">
<g clip-path="url(#clip0_1_824)">
<path d="M171.081 2.18992C167.561 2.25936 164.72 5.09891 164.65 8.61816H156.442C156.37 5.05497 153.459 2.18851 149.879 2.18851C146.298 2.18851 143.387 5.05498 143.316 8.61816H135.108C135.036 5.05498 132.125 2.18851 128.545 2.18851C124.965 2.18851 122.054 5.05498 121.982 8.61816L113.774 8.61816C113.703 5.05498 110.792 2.18851 107.211 2.18851C103.631 2.18851 100.72 5.05498 100.648 8.61816L92.4408 8.61816C92.3691 5.05498 89.4585 2.18851 85.8778 2.18851C82.2978 2.18851 79.3866 5.05498 79.3154 8.61816L71.1069 8.61816C71.0357 5.05498 68.1245 2.18851 64.5444 2.18851C60.9638 2.18851 58.0532 5.05498 57.9815 8.61816L49.7735 8.61816C49.7018 5.05498 46.7911 2.18851 43.211 2.18851C39.6304 2.18851 36.7198 5.05498 36.648 8.61816L28.4401 8.61816C28.3683 5.05498 25.4572 2.18851 21.8771 2.18851C18.2965 2.18851 15.3858 5.05498 15.3141 8.61816L7.1066 8.61816C7.03488 5.05498 4.12375 2.18851 0.543671 2.18851C0.493774 2.18851 0.443848 2.18908 0.393951 2.19023V0.821811H342L342 2.18934C341.966 2.18882 341.932 2.18856 341.899 2.18856C338.318 2.18856 335.407 5.05499 335.336 8.61814L327.128 8.61814C327.056 5.05496 324.145 2.18851 320.565 2.18851C316.985 2.18851 314.074 5.05496 314.002 8.61814L305.794 8.61814C305.723 5.05496 302.812 2.18851 299.231 2.18851C295.651 2.18851 292.74 5.05496 292.669 8.61814L284.46 8.61815C284.389 5.05496 281.478 2.18851 277.897 2.18851C274.317 2.18851 271.407 5.05496 271.335 8.61815L263.127 8.61815C263.055 5.05496 260.145 2.18851 256.564 2.18851C252.984 2.18851 250.073 5.05496 250.001 8.61815L241.793 8.61815C241.722 5.05496 238.811 2.18851 235.231 2.18851C231.65 2.18851 228.739 5.05497 228.668 8.61815L220.46 8.61815C220.388 5.05497 217.477 2.18851 213.897 2.18851C210.316 2.18851 207.406 5.05497 207.334 8.61815L199.126 8.61815C199.054 5.05497 196.144 2.18851 192.563 2.18851C188.983 2.18851 186.072 5.05497 186 8.61815L177.793 8.61815C177.721 5.08287 174.856 2.23347 171.314 2.18903C171.28 2.18851 171.246 2.18862 171.213 2.18862C171.206 2.18862 171.2 2.18862 171.194 2.18862C171.156 2.18882 171.118 2.18903 171.081 2.18992Z" fill="#CCCCCC"/>
</g>
<defs>
<clipPath id="clip0_1_824">
<rect width="342" height="7.79635" fill="white" transform="matrix(-1 0 0 -1 342 8.61816)"/>
</clipPath>
</defs>
</svg>
