<svg width="341" height="9" viewBox="0 0 341 9" fill="none" xmlns="http://www.w3.org/2000/svg">
<g clip-path="url(#clip0_1_809)">
<path d="M-0.89858 7.2816C2.68174 7.2816 5.5926 4.41521 5.66427 0.852058L13.8723 0.852057C13.944 4.41524 16.8548 7.2817 20.4352 7.2817C24.0155 7.2817 26.9263 4.41524 26.998 0.852057L35.2058 0.852056C35.2775 4.41524 38.1883 7.2817 41.7687 7.2817C45.349 7.2817 48.2598 4.41524 48.3315 0.852056L56.5397 0.852055C56.6114 4.41524 59.522 7.2817 63.1027 7.2817C66.6827 7.2817 69.5934 4.41524 69.6651 0.852055L77.8731 0.852055C77.9448 4.41524 80.8555 7.2817 84.4356 7.2817C88.0162 7.2817 90.9268 4.41524 90.9985 0.852054L99.2065 0.852054C99.2783 4.41524 102.189 7.2817 105.769 7.2817C109.35 7.2817 112.261 4.41524 112.332 0.852053L120.54 0.852053C120.612 4.41524 123.523 7.2817 127.103 7.2817C130.684 7.2817 133.594 4.41524 133.666 0.852052L141.874 0.852052C141.946 4.41523 144.856 7.2817 148.437 7.2817C152.017 7.2817 154.928 4.41523 155 0.852051L163.207 0.852051C163.279 4.38732 166.144 7.23674 169.686 7.28113C169.72 7.28165 169.754 7.2816 169.787 7.2816C169.792 7.2816 169.796 7.2816 169.8 7.2816C169.84 7.28144 169.88 7.28092 169.919 7.27999C173.439 7.21055 176.28 4.37129 176.35 0.852058L184.558 0.852057C184.63 4.41524 187.541 7.2817 191.121 7.2817C194.701 7.2817 197.613 4.41524 197.684 0.852057L205.892 0.852056C205.964 4.41524 208.875 7.2817 212.455 7.2817C216.035 7.2817 218.946 4.41524 219.018 0.852056L227.226 0.852055C227.297 4.41524 230.208 7.2817 233.789 7.2817C237.369 7.2817 240.28 4.41524 240.351 0.852055L248.559 0.852055C248.631 4.41524 251.542 7.2817 255.122 7.2817C258.702 7.2817 261.613 4.41524 261.685 0.852054L269.893 0.852054C269.964 4.41524 272.875 7.2817 276.456 7.2817C280.036 7.2817 282.947 4.41524 283.019 0.852053L291.227 0.852053C291.298 4.41524 294.209 7.2817 297.789 7.2817C301.37 7.2817 304.28 4.41524 304.352 0.852052L312.56 0.852052C312.632 4.41523 315.543 7.2817 319.123 7.2817C322.703 7.2817 325.614 4.41523 325.686 0.852051L333.893 0.852051C333.965 4.41523 336.876 7.2817 340.456 7.2817C340.506 7.2817 340.556 7.28113 340.606 7.27999V8.6484H-0.999794L-1 7.28087C-0.966255 7.28139 -0.932447 7.2816 -0.89858 7.2816Z" fill="white"/>
</g>
<defs>
<clipPath id="clip0_1_809">
<rect width="342" height="7.79635" fill="white" transform="translate(-1 0.852051)"/>
</clipPath>
</defs>
</svg>
